<svg xmlns="http://www.w3.org/2000/svg" viewBox="0 0 171 28" aria-label="Sulzer" fill="#003DA5"><path d="M8.4,0C2.1,0,0,4.3,0,7.1C0,9.5,0,9.9,0,11c0,3,2.8,6.4,6.9,6.4c3.6,0,8,0,8.7,0c1,0,1.2,0.6,1.2,1
	c0,0.4,0,0.7,0,1c0,0.5-0.4,1-1.2,1c-1,0-15.2,0-15.2,0v7.2c0,0,11.6,0,18.5,0c5,0,7.9-4.4,7.9-7.3c0-2,0-2.7,0-4
	c0-4.1-4.1-6.9-8.2-6.9c-3.6,0-7.5,0-8.2,0c-0.9,0-1.2-0.6-1.2-1s0-0.4,0-0.7c0-0.5,0.4-1,1.2-1c1,0,15.2,0,15.2,0V0
	C25.6,0,9.6,0,8.4,0z M30.3,0c0,1.5,0,17.7,0,19.1c0,4.5,3.3,8.9,11,8.9c4.5,0,2,0,6.5,0c8.1,0,10.8-4,10.8-8.9c0-1.3,0-17.6,0-19.1
	c-2.8,0-9.7,0-9.7,0s0,17.2,0,18.1c0,1.3-0.6,2.4-2.5,2.4h-4.1c-1.9,0-2.5-1-2.5-2.4c0-0.9,0-18.1,0-18.1S33.1,0,30.3,0z M62.7,0
	v27.7h20.9v-7.2H72.2V0H62.7z M86.1,0.1v6.9h12.7L85.9,20.4v7.2H111v-7.2H98l12.5-13.6V0.1H86.1z M114.7,0.1v27.6h23.4v-7.2h-14.1
	v-3.6h11.2v-6.8h-11.2V6.8h13.3V0.1H114.7z M141.5,0.1v27.6h8.9V17.4h0.8l8.9,10.2H171c0,0-8.4-9.5-9.2-10.5c1.8,0,6.3-2.4,6.3-7.4
	V7.4c0-2-1.5-7.3-9-7.3H141.5z M150.2,6.8h6.8c2.1,0,2.1,1.3,2.1,2.3c0,1.5-0.7,2-1.9,2h-6.9V6.8z"/></svg>
